<svg width="40" height="40" viewBox="0 0 40 40" fill="none" xmlns="http://www.w3.org/2000/svg">
<path d="M19.6667 36.6667C17.3889 36.6667 15.2361 36.2292 13.2083 35.3542C11.1806 34.4792 9.40972 33.2848 7.89583 31.7709C6.38194 30.257 5.1875 28.4862 4.3125 26.4584C3.4375 24.4306 3 22.2778 3 20C3 17.6945 3.4375 15.5278 4.3125 13.5C5.1875 11.4723 6.38194 9.70837 7.89583 8.20837C9.40972 6.70837 11.1806 5.52087 13.2083 4.64587C15.2361 3.77087 17.3889 3.33337 19.6667 3.33337C21.9722 3.33337 24.1389 3.77087 26.1667 4.64587C28.1944 5.52087 29.9583 6.70837 31.4583 8.20837C32.9583 9.70837 34.1458 11.4723 35.0208 13.5C35.8958 15.5278 36.3333 17.6945 36.3333 20C36.3333 22.2778 35.8958 24.4306 35.0208 26.4584C34.1458 28.4862 32.9583 30.257 31.4583 31.7709C29.9583 33.2848 28.1944 34.4792 26.1667 35.3542C24.1389 36.2292 21.9722 36.6667 19.6667 36.6667ZM19.6667 34.1667C23.6111 34.1667 26.9583 32.7848 29.7083 30.0209C32.4583 27.257 33.8333 23.9167 33.8333 20C33.8333 16.0556 32.4583 12.7084 29.7083 9.95837C26.9583 7.20837 23.6111 5.83337 19.6667 5.83337C15.75 5.83337 12.4097 7.20837 9.64583 9.95837C6.88194 12.7084 5.5 16.0556 5.5 20C5.5 23.9167 6.88194 27.257 9.64583 30.0209C12.4097 32.7848 15.75 34.1667 19.6667 34.1667Z" fill="#FAF5FF"/>
</svg>
