<svg width="24" height="24" viewBox="0 0 24 24" fill="none" xmlns="http://www.w3.org/2000/svg">
<path d="M4.5 21.5V20C4.5 18.8065 4.97411 17.6619 5.81802 16.818C6.66193 15.9741 7.80653 15.5 9 15.5H15C16.1935 15.5 17.3381 15.9741 18.182 16.818C19.0259 17.6619 19.5 18.8065 19.5 20V21.5H4.5ZM12 12.5C11.2777 12.5 10.5625 12.3577 9.89524 12.0813C9.22795 11.8049 8.62163 11.3998 8.11091 10.8891C7.60019 10.3784 7.19506 9.77205 6.91866 9.10476C6.64226 8.43747 6.5 7.72227 6.5 7C6.5 6.27773 6.64226 5.56253 6.91866 4.89524C7.19506 4.22795 7.60019 3.62163 8.11091 3.11091C8.62163 2.60019 9.22795 2.19506 9.89524 1.91866C10.5625 1.64226 11.2777 1.5 12 1.5C13.4587 1.5 14.8576 2.07946 15.8891 3.11091C16.9205 4.14236 17.5 5.54131 17.5 7C17.5 8.45869 16.9205 9.85764 15.8891 10.8891C14.8576 11.9205 13.4587 12.5 12 12.5Z" stroke="#EDFDFD"/>
</svg>
